HIERARCHY
ROOT Hips
{
	OFFSET 0.000000 100.481300 0.000000
	CHANNELS 6 Xposition Yposition Zposition Xrotation Yrotation Zrotation
	JOINT Spine
	{
		OFFSET -0.279200 12.230698 -2.892100
		CHANNELS 3 Xrotation Yrotation Zrotation
		JOINT Spine1
		{
			OFFSET -0.325700 14.269203 -3.374200
			CHANNELS 3 Xrotation Yrotation Zrotation
			JOINT Spine2
			{
				OFFSET -0.372300 16.307602 -0.352600
				CHANNELS 3 Xrotation Yrotation Zrotation
				JOINT Neck
				{
					OFFSET -0.418800 17.814194 8.416900
					CHANNELS 3 Xrotation Yrotation Zrotation
					JOINT Head
					{
						OFFSET 0.000000 7.031097 3.806800
						CHANNELS 3 Xrotation Yrotation Zrotation
						JOINT HeadTop_End
						{
							OFFSET 0.000000 24.646606 12.978600
							CHANNELS 3 Xrotation Yrotation Zrotation
							End Site
							{
								OFFSET 0.000000 27.854965 0.000000
							}
						}
					}
				}
				JOINT LeftShoulder
				{
					OFFSET 16.952999 14.495407 -7.737500
					CHANNELS 3 Xrotation Yrotation Zrotation
					JOINT LeftArm
					{
						OFFSET 9.308998 -2.777710 0.208600
						CHANNELS 3 Xrotation Yrotation Zrotation
						JOINT LeftForeArm
						{
							OFFSET 29.972298 0.000000 0.000000
							CHANNELS 3 Xrotation Yrotation Zrotation
							JOINT LeftHand
							{
								OFFSET 26.026505 0.000000 0.000000
								CHANNELS 3 Xrotation Yrotation Zrotation
								JOINT LeftHandThumb1
								{
									OFFSET 12.240501 -7.147949 9.207150
									CHANNELS 3 Xrotation Yrotation Zrotation
									JOINT LeftHandThumb2
									{
										OFFSET 4.138618 -2.389435 2.389433
										CHANNELS 3 Xrotation Yrotation Zrotation
										JOINT LeftHandThumb3
										{
											OFFSET 2.726913 -1.574387 1.574386
											CHANNELS 3 Xrotation Yrotation Zrotation
											JOINT LeftHandThumb4
											{
												OFFSET 3.941010 -2.275345 2.275342
												CHANNELS 3 Xrotation Yrotation Zrotation
												End Site
												{
													OFFSET -0.005798 5.087799 0.009903
												}
											}
										}
									}
								}
								JOINT LeftHandIndex1
								{
									OFFSET 24.424698 -1.985611 5.953459
									CHANNELS 3 Xrotation Yrotation Zrotation
									JOINT LeftHandIndex2
									{
										OFFSET 6.426697 0.000000 0.000000
										CHANNELS 3 Xrotation Yrotation Zrotation
										JOINT LeftHandIndex3
										{
											OFFSET 5.337898 0.000000 0.000000
											CHANNELS 3 Xrotation Yrotation Zrotation
											JOINT LeftHandIndex4
											{
												OFFSET 4.409401 0.000000 0.000000
												CHANNELS 3 Xrotation Yrotation Zrotation
												End Site
												{
													OFFSET 0.000000 4.409363 0.014373
												}
											}
										}
									}
								}
								JOINT LeftHandMiddle1
								{
									OFFSET 23.810104 0.000000 0.000000
									CHANNELS 3 Xrotation Yrotation Zrotation
									JOINT LeftHandMiddle2
									{
										OFFSET 7.176498 0.000000 0.000000
										CHANNELS 3 Xrotation Yrotation Zrotation
										JOINT LeftHandMiddle3
										{
											OFFSET 6.774902 0.000000 0.000000
											CHANNELS 3 Xrotation Yrotation Zrotation
											JOINT LeftHandMiddle4
											{
												OFFSET 5.403328 0.000000 0.000000
												CHANNELS 3 Xrotation Yrotation Zrotation
												End Site
												{
													OFFSET -0.027702 5.403244 0.017414
												}
											}
										}
									}
								}
								JOINT LeftHandRing1
								{
									OFFSET 22.908401 -0.839279 -6.020567
									CHANNELS 3 Xrotation Yrotation Zrotation
									JOINT LeftHandRing2
									{
										OFFSET 6.337502 0.000000 0.000000
										CHANNELS 3 Xrotation Yrotation Zrotation
										JOINT LeftHandRing3
										{
											OFFSET 5.779297 0.000000 0.000000
											CHANNELS 3 Xrotation Yrotation Zrotation
											JOINT LeftHandRing4
											{
												OFFSET 4.965698 0.000000 0.000000
												CHANNELS 3 Xrotation Yrotation Zrotation
												End Site
												{
													OFFSET 0.000000 4.965668 0.016186
												}
											}
										}
									}
								}
								JOINT LeftHandPinky1
								{
									OFFSET 20.037003 -1.530319 -10.950146
									CHANNELS 3 Xrotation Yrotation Zrotation
									JOINT LeftHandPinky2
									{
										OFFSET 5.254700 0.000000 0.000000
										CHANNELS 3 Xrotation Yrotation Zrotation
										JOINT LeftHandPinky3
										{
											OFFSET 4.810204 0.000000 0.000000
											CHANNELS 3 Xrotation Yrotation Zrotation
											JOINT LeftHandPinky4
											{
												OFFSET 3.647202 0.000000 0.000000
												CHANNELS 3 Xrotation Yrotation Zrotation
												End Site
												{
													OFFSET 0.000000 3.647186 0.011889
												}
											}
										}
									}
								}
							}
						}
					}
				}
				JOINT RightShoulder
				{
					OFFSET -15.141001 14.495407 -7.737500
					CHANNELS 3 Xrotation Yrotation Zrotation
					JOINT RightArm
					{
						OFFSET -9.308998 -2.777710 0.208500
						CHANNELS 3 Xrotation Yrotation Zrotation
						JOINT RightForeArm
						{
							OFFSET -29.972300 0.000000 0.000000
							CHANNELS 3 Xrotation Yrotation Zrotation
							JOINT RightHand
							{
								OFFSET -26.026505 0.000000 0.000000
								CHANNELS 3 Xrotation Yrotation Zrotation
								JOINT RightHandThumb1
								{
									OFFSET -12.240601 -7.148026 9.207092
									CHANNELS 3 Xrotation Yrotation Zrotation
									JOINT RightHandThumb2
									{
										OFFSET -4.138618 -2.389435 2.389433
										CHANNELS 3 Xrotation Yrotation Zrotation
										JOINT RightHandThumb3
										{
											OFFSET -2.726974 -1.574417 1.574421
											CHANNELS 3 Xrotation Yrotation Zrotation
											JOINT RightHandThumb4
											{
												OFFSET -3.941010 -2.275345 2.275343
												CHANNELS 3 Xrotation Yrotation Zrotation
												End Site
												{
													OFFSET 0.005814 5.087799 0.009927
												}
											}
										}
									}
								}
								JOINT RightHandIndex1
								{
									OFFSET -24.424698 -1.985657 5.953444
									CHANNELS 3 Xrotation Yrotation Zrotation
									JOINT RightHandIndex2
									{
										OFFSET -6.426697 0.000000 0.000000
										CHANNELS 3 Xrotation Yrotation Zrotation
										JOINT RightHandIndex3
										{
											OFFSET -5.337898 0.000000 0.000000
											CHANNELS 3 Xrotation Yrotation Zrotation
											JOINT RightHandIndex4
											{
												OFFSET -4.409401 0.000000 0.000000
												CHANNELS 3 Xrotation Yrotation Zrotation
												End Site
												{
													OFFSET 0.000000 4.409363 0.014408
												}
											}
										}
									}
								}
								JOINT RightHandMiddle1
								{
									OFFSET -23.810097 0.000000 0.000000
									CHANNELS 3 Xrotation Yrotation Zrotation
									JOINT RightHandMiddle2
									{
										OFFSET -7.176498 0.000000 0.000000
										CHANNELS 3 Xrotation Yrotation Zrotation
										JOINT RightHandMiddle3
										{
											OFFSET -6.774902 0.000000 0.000000
											CHANNELS 3 Xrotation Yrotation Zrotation
											JOINT RightHandMiddle4
											{
												OFFSET -5.403328 0.000000 0.000000
												CHANNELS 3 Xrotation Yrotation Zrotation
												End Site
												{
													OFFSET 0.027702 5.403244 0.017457
												}
											}
										}
									}
								}
								JOINT RightHandRing1
								{
									OFFSET -22.908302 -0.839325 -6.020576
									CHANNELS 3 Xrotation Yrotation Zrotation
									JOINT RightHandRing2
									{
										OFFSET -6.337502 0.000000 0.000000
										CHANNELS 3 Xrotation Yrotation Zrotation
										JOINT RightHandRing3
										{
											OFFSET -5.779297 0.000000 0.000000
											CHANNELS 3 Xrotation Yrotation Zrotation
											JOINT RightHandRing4
											{
												OFFSET -4.965698 0.000000 0.000000
												CHANNELS 3 Xrotation Yrotation Zrotation
												End Site
												{
													OFFSET 0.000000 4.965668 0.016226
												}
											}
										}
									}
								}
								JOINT RightHandPinky1
								{
									OFFSET -20.037003 -1.530334 -10.950259
									CHANNELS 3 Xrotation Yrotation Zrotation
									JOINT RightHandPinky2
									{
										OFFSET -5.254700 0.000000 0.000000
										CHANNELS 3 Xrotation Yrotation Zrotation
										JOINT RightHandPinky3
										{
											OFFSET -4.810204 0.000000 0.000000
											CHANNELS 3 Xrotation Yrotation Zrotation
											JOINT RightHandPinky4
											{
												OFFSET -3.647202 0.000000 0.000000
												CHANNELS 3 Xrotation Yrotation Zrotation
												End Site
												{
													OFFSET 0.000000 3.647186 0.011917
												}
											}
										}
									}
								}
							}
						}
					}
				}
			}
		}
	}
	JOINT LeftUpLeg
	{
		OFFSET 15.427100 -6.655098 0.678600
		CHANNELS 3 Xrotation Yrotation Zrotation
		JOINT LeftLeg
		{
			OFFSET 4.081073 -39.591068 13.024000
			CHANNELS 3 Xrotation Yrotation Zrotation
			JOINT LeftFoot
			{
				OFFSET -4.081074 -37.707932 -15.979700
				CHANNELS 3 Xrotation Yrotation Zrotation
				JOINT LeftToeBase
				{
					OFFSET 5.346399 -15.068900 20.645000
					CHANNELS 3 Xrotation Yrotation Zrotation
					JOINT LeftToe_End
					{
						OFFSET 2.754700 0.931300 11.300900
						CHANNELS 3 Xrotation Yrotation Zrotation
						End Site
						{
							OFFSET 0.000000 11.669021 0.000000
						}
					}
				}
			}
		}
	}
	JOINT RightUpLeg
	{
		OFFSET -15.569500 -6.655098 0.678600
		CHANNELS 3 Xrotation Yrotation Zrotation
		JOINT RightLeg
		{
			OFFSET -4.081825 -39.591045 13.023800
			CHANNELS 3 Xrotation Yrotation Zrotation
			JOINT RightFoot
			{
				OFFSET 4.081824 -37.707954 -15.979600
				CHANNELS 3 Xrotation Yrotation Zrotation
				JOINT RightToeBase
				{
					OFFSET -5.346400 -15.068900 20.645000
					CHANNELS 3 Xrotation Yrotation Zrotation
					JOINT RightToe_End
					{
						OFFSET -2.754700 0.931300 11.300900
						CHANNELS 3 Xrotation Yrotation Zrotation
						End Site
						{
							OFFSET 0.000000 11.669021 0.000000
						}
					}
				}
			}
		}
	}
}
MOTION
Frames: 4
Frame Time: 0.033333
0.980967 91.566864 -0.953941 8.341312 0.619699 4.538327 10.938825 -0.364354 -1.492892 2.146753 -0.031528 -0.478931 2.146503 -0.023078 -0.481560 3.259962 -0.028700 -0.085979 20.020312 -0.089289 -1.023070 -0.000003 0.000000 -0.000000 0.742839 8.952361 -13.053727 10.737604 -6.254791 -54.002614 -0.000005 -32.994260 -0.000019 3.018197 -1.471484 -4.081412 -3.927798 -5.157635 8.886251 21.372726 38.839830 0.020903 -0.475485 -2.423425 17.064980 0.000000 0.000001 -0.000000 1.084138 5.646490 -31.107796 2.579630 4.853690 -55.959023 0.000002 -0.001539 0.014995 -0.000000 0.000001 -0.000003 2.272648 7.070734 -41.287346 3.978835 5.544422 -71.308049 0.000000 -0.000576 0.005643 0.000001 0.000000 -0.000000 2.292486 7.093149 -41.286762 3.978836 5.544428 -71.308015 -0.000002 -0.000579 0.005642 -0.000003 0.000002 0.000000 2.297556 7.098880 -41.286584 3.978842 5.544435 -71.308022 0.000000 -0.000572 0.005647 -0.000000 0.000001 -0.000001 1.078068 -8.352865 11.371666 3.407883 18.890941 61.317272 -0.000011 23.538777 0.000019 1.182690 -2.960225 -1.406663 -5.104751 0.227806 -17.972070 16.981350 -29.890889 7.725571 -6.337753 -28.133418 -4.845032 -0.000001 0.000000 -0.000005 0.277879 -3.754822 14.875763 3.775957 -4.573222 79.081276 0.158027 1.204134 -14.952693 -0.000001 0.000002 0.000001 1.448078 -5.849976 32.032006 4.654525 -4.657163 89.967388 0.158024 1.204120 -14.952700 -0.000000 0.000001 0.000000 1.444371 -5.844087 32.032208 4.654524 -4.657171 89.967368 0.158029 1.204129 -14.952705 0.000001 0.000003 0.000000 1.447053 -5.848350 32.032067 4.654535 -4.657170 89.967375 0.158026 1.204128 -14.952696 0.000000 0.000001 -0.000001 -18.006120 4.931651 1.253652 26.077901 -4.636201 -1.529200 -11.849852 0.412350 -2.248850 -7.697961 -0.000001 -0.000000 0.000000 0.000000 -0.000000 -23.282057 -8.504399 -2.962005 29.030756 0.356380 3.182289 -14.439624 1.424990 -6.978476 -5.442007 -0.000003 -0.000000 -0.000001 0.000001 0.000000 
2.163032 91.029221 -0.997385 8.624574 0.474178 4.097585 10.044256 -0.754605 -1.319872 2.771934 -0.167043 -0.379885 2.615568 -0.152049 -0.376592 2.196650 0.013693 -0.089254 16.371811 0.109654 -0.855057 0.000000 -0.000000 -0.000000 0.717552 8.774982 -12.938870 10.521207 -7.295392 -52.974486 -0.000003 -35.137874 -0.000007 2.211814 -1.569313 -3.848475 -3.927798 -5.157635 8.886253 19.498375 36.464915 0.431213 -0.164245 -2.892096 17.041974 0.000001 0.000000 -0.000001 1.047680 5.592402 -30.467845 2.405428 4.731751 -53.874196 0.015804 0.430527 -4.205104 0.000001 0.000001 0.000000 2.242383 7.047319 -40.918827 3.630741 5.414784 -67.663925 0.005588 0.256112 -2.499967 -0.000001 0.000001 0.000000 2.192817 7.015660 -40.071863 3.815984 5.486898 -69.613903 0.006678 0.279982 -2.733159 -0.000001 0.000000 0.000000 2.242624 7.056699 -40.620361 3.548661 5.380477 -66.791293 0.016467 0.439399 -4.291948 0.000000 0.000000 -0.000000 1.078698 -8.467040 11.336323 4.086821 18.353282 61.019093 0.000008 23.544733 -0.000013 0.277924 -2.412041 -1.853964 -5.104752 0.227806 -17.972068 16.669338 -29.255667 7.609036 -6.733491 -26.840465 -5.791069 0.000000 0.000001 0.000001 0.202492 -3.416666 13.486391 3.625093 -4.541608 77.182729 0.102928 0.974743 -12.055480 0.000000 -0.000000 -0.000002 1.326239 -5.735296 30.046262 4.464936 -4.653206 87.631723 0.106090 0.989423 -12.239818 -0.000000 -0.000002 0.000000 1.364338 -5.769442 30.732907 4.513024 -4.654941 88.224351 0.096668 0.944965 -11.681878 -0.000000 -0.000000 0.000000 1.368619 -5.775386 30.760566 4.394583 -4.649781 86.764173 0.083599 0.879367 -10.860632 -0.000000 -0.000001 -0.000001 -19.115263 5.014119 0.913119 27.912422 -4.467448 -1.550078 -12.837802 0.343309 -1.320649 -7.697963 -0.000001 -0.000001 -0.000000 0.000000 0.000000 -26.611068 -8.170275 -3.926921 33.322232 0.166695 3.490042 -12.146268 0.642258 -6.648071 -9.114049 0.000001 0.000000 0.000001 0.000001 0.000000 
3.417351 90.262192 -1.125511 8.734868 0.159135 3.669465 9.215073 -0.916517 -1.172947 3.462139 -0.236611 -0.298165 3.136904 -0.215170 -0.289915 1.085431 0.006505 -0.039866 12.599208 -0.025701 -0.621370 -0.000001 0.000000 0.000000 0.701428 8.654133 -12.866220 10.283739 -8.469756 -51.591079 -0.000003 -37.549788 0.000013 1.591458 -1.615900 -3.620530 -3.927798 -5.157637 8.886251 17.527579 33.827902 0.690587 0.180985 -3.413551 17.022720 -0.000002 -0.000001 -0.000002 1.007885 5.531804 -29.756631 2.217181 4.588903 -51.557615 0.070634 0.907960 -8.896614 0.000000 -0.000002 -0.000002 2.208931 7.021068 -40.509200 3.254506 5.245154 -63.615303 0.024961 0.540830 -5.285237 0.000001 0.000002 -0.000000 2.084028 6.927075 -38.721879 3.637085 5.417364 -67.731175 0.029826 0.591061 -5.777673 -0.000000 -0.000001 0.000000 2.182167 7.009076 -39.879917 3.087512 5.159306 -61.773822 0.073403 0.925469 -9.069607 -0.000001 -0.000000 -0.000000 1.109406 -8.501750 11.479859 4.732804 18.375302 60.085953 -0.000005 23.178684 0.000005 -0.235317 -1.720085 -2.504964 -5.104754 0.227805 -17.972070 16.323049 -28.544412 7.486277 -7.167357 -25.400080 -6.840488 -0.000005 0.000003 -0.000001 0.134593 -3.034914 11.932999 3.457611 -4.500362 75.058315 0.055111 0.715116 -8.813695 -0.000002 0.000000 -0.000001 1.194757 -5.602074 27.824789 4.253172 -4.639649 85.017987 0.060093 0.746540 -9.204276 0.000001 -0.000001 0.000000 1.276829 -5.683799 29.279197 4.354836 -4.647378 86.273779 0.045672 0.651337 -8.022118 0.000001 -0.000002 0.000000 1.282812 -5.691702 29.337995 4.104711 -4.624360 83.179669 0.028018 0.510712 -6.282091 0.000000 -0.000002 -0.000001 -20.271744 5.121019 0.565033 30.232750 -4.153090 -1.576147 -14.086250 0.270950 -0.377780 -7.697966 -0.000001 0.000000 -0.000000 -0.000000 0.000000 -29.993372 -7.861981 -4.766884 37.914127 -0.297367 3.555619 -10.077862 0.132412 -6.832284 -12.786104 -0.000000 0.000000 -0.000001 -0.000000 0.000000 
4.418780 89.588387 -1.417805 8.816791 -0.664108 3.495323 8.416817 -0.630882 -1.344276 4.183546 -0.179101 -0.285661 3.683768 -0.151977 -0.273337 -0.050796 -0.036547 0.025735 8.683030 -0.411737 -0.189921 0.000001 0.000000 -0.000000 0.684216 8.585280 -12.782911 10.135139 -9.336437 -49.896858 0.000001 -40.453827 -0.000009 1.083108 -1.562827 -3.137879 -3.927797 -5.157636 8.886251 15.570350 31.081435 0.760322 0.541268 -3.959233 17.009693 -0.000001 -0.000001 -0.000002 0.967075 5.467931 -29.013032 2.026761 4.431570 -49.136384 0.169545 1.400612 -13.803482 -0.000002 0.000000 -0.000001 2.174150 6.993373 -40.080937 2.875103 5.039983 -59.384492 0.059993 0.837170 -8.197853 -0.000000 0.000002 0.000000 1.972575 6.831774 -37.310711 3.452612 5.338447 -65.763022 0.071665 0.914523 -8.961451 -0.000000 -0.000001 -0.000000 2.119623 6.958461 -39.105821 2.628248 4.886066 -56.531522 0.176037 1.426772 -14.066632 -0.000000 -0.000000 -0.000000 1.123276 -8.398984 11.583091 5.137637 18.746521 59.106797 0.000002 22.594075 -0.000006 -0.488925 -0.737767 -3.553233 -5.104752 0.227805 -17.972074 15.956022 -27.783799 7.363729 -7.621711 -23.868369 -7.952187 0.000000 0.000002 -0.000001 0.081349 -2.623718 10.274120 3.280456 -4.449463 72.787857 0.020328 0.435114 -5.349096 0.000000 0.000000 0.000001 1.060108 -5.454186 25.451267 4.027771 -4.614536 82.224426 0.025232 0.484632 -5.960084 0.000001 0.000000 0.000000 1.185755 -5.589854 27.725749 4.186157 -4.633342 84.188966 0.012002 0.334580 -4.110824 0.000001 -0.000001 -0.000000 1.193452 -5.599950 27.817800 3.797305 -4.577279 79.348746 0.001363 0.113125 -1.388849 0.000001 -0.000001 -0.000000 -21.166939 5.219442 0.270064 32.118705 -3.393659 -1.638094 -15.127477 0.292846 0.169363 -7.697968 0.000001 -0.000000 -0.000000 -0.000000 -0.000000 -32.609741 -7.513503 -6.042233 40.909380 -0.188874 3.528251 -8.627056 -0.246339 -6.353462 -15.366133 0.000000 0.000003 -0.000000 -0.000001 -0.000000 
